# xmcd
#
# Track frame offsets: 
#        150
#        22805
#        57912
#        79535
#        106135
#        143425
#        164057
#        176547
#        199202
#
# Disc length: 3019 seconds
#
# Revision: 0
# Processed by: cddbd v1.5.2PL0 Copyright (c) Steve Scherf et al.
# Submitted via: ExactAudioCopy v0.95b3
#
DISCID=6a0bc909
DTITLE=Jimi Hendrix  - Live at L'Olympia  FLAC
DYEAR=1900
DGENRE=
TTITLE0=Killin' Floor
TTITLE1=Catfish Blues
TTITLE2=Foxy Lady
TTITLE3=Red House
TTITLE4=Drivin's South (Instrumental)
TTITLE5=The Wind Cries Mary
TTITLE6=Fire
TTITLE7=Little Wing
TTITLE8=Purple Haze
EXTD=
EXTT0=
EXTT1=
EXTT2=
EXTT3=
EXTT4=
EXTT5=
EXTT6=
EXTT7=
EXTT8=
PLAYORDER=
